<mxfile host="65bd71144e">
    <diagram id="N5KQSoFaKO_3qXM0kVTW" name="UC001">
        <mxGraphModel dx="-4953" dy="8415" grid="0" gridSize="10" guides="1" tooltips="1" connect="1" arrows="1" fold="1" page="1" pageScale="1" pageWidth="827" pageHeight="1169" background="#ffffff" math="0" shadow="0">
            <root>
                <mxCell id="0"/>
                <mxCell id="1" parent="0"/>
                <mxCell id="901" value="" style="shape=note;whiteSpace=wrap;html=1;backgroundOutline=1;darkOpacity=0.05;fillColor=#FFFFFF;strokeColor=#B3B3B3;size=0;fontSize=10;fontColor=#ffffff;perimeterSpacing=1;rounded=1;" parent="1" vertex="1">
                    <mxGeometry x="7875" y="-5587" width="1059" height="719" as="geometry"/>
                </mxCell>
                <mxCell id="919" style="edgeStyle=none;html=1;strokeColor=#000000;" parent="1" source="796" target="803" edge="1">
                    <mxGeometry relative="1" as="geometry"/>
                </mxCell>
                <mxCell id="796" value="UserService&lt;br&gt;&lt;font color=&quot;#666666&quot;&gt;(CreateUserUseCase)&lt;/font&gt;" style="rounded=0;whiteSpace=wrap;html=1;fillColor=#60a917;strokeColor=#2D7600;strokeWidth=2;fontColor=#ffffff;arcSize=0;fontSize=21;" parent="1" vertex="1">
                    <mxGeometry x="8586.130000000001" y="-5316" width="216.25" height="120" as="geometry"/>
                </mxCell>
                <mxCell id="920" style="edgeStyle=none;html=1;entryX=0.5;entryY=0;entryDx=0;entryDy=0;strokeColor=#000000;" parent="1" source="803" target="804" edge="1">
                    <mxGeometry relative="1" as="geometry"/>
                </mxCell>
                <mxCell id="803" value="UserRepositoryDatabase" style="rounded=1;whiteSpace=wrap;html=1;fillColor=#60A917;strokeColor=#36393d;strokeWidth=2;fontColor=#050505;arcSize=0;fontSize=21;" parent="1" vertex="1">
                    <mxGeometry x="8540" y="-5115" width="309" height="60" as="geometry"/>
                </mxCell>
                <mxCell id="804" value="DB" style="rounded=1;whiteSpace=wrap;html=1;fillColor=#FFFFFF;strokeColor=#666666;strokeWidth=2;fontColor=#333333;arcSize=0;fontSize=21;" parent="1" vertex="1">
                    <mxGeometry x="8614.75" y="-4993" width="163" height="62" as="geometry"/>
                </mxCell>
                <mxCell id="807" style="edgeStyle=none;html=1;fontSize=30;strokeColor=#000000;strokeWidth=2;" parent="1" source="813" target="796" edge="1">
                    <mxGeometry relative="1" as="geometry">
                        <mxPoint x="9128.25" y="-5402" as="targetPoint"/>
                    </mxGeometry>
                </mxCell>
                <mxCell id="811" style="edgeStyle=none;html=1;entryX=0.5;entryY=1;entryDx=0;entryDy=0;strokeColor=#0A0A0A;strokeWidth=2;" parent="1" source="813" target="839" edge="1">
                    <mxGeometry relative="1" as="geometry"/>
                </mxCell>
                <mxCell id="812" style="edgeStyle=none;html=1;entryX=0.5;entryY=0;entryDx=0;entryDy=0;strokeColor=#0A0A0A;strokeWidth=2;" parent="1" source="813" target="838" edge="1">
                    <mxGeometry relative="1" as="geometry"/>
                </mxCell>
                <mxCell id="813" value="&lt;font style=&quot;font-size: 21px&quot;&gt;&lt;font color=&quot;#050505&quot;&gt;UserController&lt;/font&gt;&lt;br&gt;&lt;font color=&quot;#666666&quot;&gt;(CreateUserController)&lt;/font&gt;&lt;/font&gt;" style="rounded=1;whiteSpace=wrap;html=1;fillColor=#60A917;strokeColor=#2D7600;strokeWidth=2;fontColor=#030303;arcSize=0;fontSize=21;" parent="1" vertex="1">
                    <mxGeometry x="8296.75" y="-5304" width="216" height="100" as="geometry"/>
                </mxCell>
                <mxCell id="819" value="Express" style="rounded=1;whiteSpace=wrap;html=1;fillColor=#FFFFFF;strokeColor=#666666;strokeWidth=2;fontColor=#333333;arcSize=0;fontSize=21;" parent="1" vertex="1">
                    <mxGeometry x="7892" y="-5533" width="163" height="62" as="geometry"/>
                </mxCell>
                <mxCell id="820" style="edgeStyle=none;html=1;entryX=0;entryY=0.5;entryDx=0;entryDy=0;fontSize=23;strokeColor=#1C1C1C;strokeWidth=2;" parent="1" source="821" target="813" edge="1">
                    <mxGeometry relative="1" as="geometry">
                        <mxPoint x="8205" y="-5268" as="targetPoint"/>
                    </mxGeometry>
                </mxCell>
                <mxCell id="821" value="index" style="rounded=1;whiteSpace=wrap;html=1;fillColor=#FFFFFF;strokeColor=#666666;strokeWidth=2;fontColor=#333333;arcSize=0;fontSize=21;" parent="1" vertex="1">
                    <mxGeometry x="7890" y="-5281" width="163" height="62" as="geometry"/>
                </mxCell>
                <mxCell id="837" value="&lt;span style=&quot;color: rgb(117 , 117 , 117) ; font-family: &amp;quot;sohne&amp;quot; , &amp;quot;helvetica neue&amp;quot; , &amp;quot;helvetica&amp;quot; , &amp;quot;arial&amp;quot; , sans-serif ; font-size: 14px ; font-style: normal ; font-weight: 400 ; letter-spacing: normal ; text-align: center ; text-indent: 0px ; text-transform: none ; word-spacing: 0px ; background-color: rgb(255 , 255 , 255) ; display: inline ; float: none&quot;&gt;&amp;nbsp;3-layer architecture&lt;/span&gt;" style="text;whiteSpace=wrap;html=1;fontSize=21;fontColor=#030303;" parent="1" vertex="1">
                    <mxGeometry x="7980.366666666667" y="-5688" width="213" height="42" as="geometry"/>
                </mxCell>
                <mxCell id="838" value="Response" style="rounded=1;whiteSpace=wrap;html=1;fillColor=#60A917;strokeColor=#2D7600;strokeWidth=2;fontColor=#050505;arcSize=0;fontSize=21;dashed=1;" parent="1" vertex="1">
                    <mxGeometry x="8160" y="-5172" width="235" height="62" as="geometry"/>
                </mxCell>
                <mxCell id="839" value="Request" style="rounded=1;whiteSpace=wrap;html=1;fillColor=#60A917;strokeColor=#2D7600;strokeWidth=2;fontColor=#050505;arcSize=0;fontSize=21;dashed=1;" parent="1" vertex="1">
                    <mxGeometry x="8156" y="-5418" width="235" height="62" as="geometry"/>
                </mxCell>
                <mxCell id="0icWfnDGlXqkBCbj08HF-928" value="Dir: Infra/http" style="text;html=1;strokeColor=none;fillColor=none;align=center;verticalAlign=middle;whiteSpace=wrap;rounded=1;fontColor=#FFFFFF;fontSize=20;fontStyle=1" parent="1" vertex="1">
                    <mxGeometry x="8517.369999999999" y="-5588" width="166.63" height="30" as="geometry"/>
                </mxCell>
                <mxCell id="0icWfnDGlXqkBCbj08HF-934" value="Dir: main" style="text;html=1;strokeColor=none;fillColor=none;align=center;verticalAlign=middle;whiteSpace=wrap;rounded=1;fontColor=#CCCCCC;fontSize=20;fontStyle=1" parent="1" vertex="1">
                    <mxGeometry x="7918" y="-5573" width="166.63" height="30" as="geometry"/>
                </mxCell>
                <mxCell id="0icWfnDGlXqkBCbj08HF-941" style="edgeStyle=orthogonalEdgeStyle;rounded=0;orthogonalLoop=1;jettySize=auto;html=1;fontSize=20;fontColor=#B3B3B3;" parent="1" target="0icWfnDGlXqkBCbj08HF-940" edge="1">
                    <mxGeometry relative="1" as="geometry">
                        <mxPoint x="8286.5" y="-5237" as="sourcePoint"/>
                    </mxGeometry>
                </mxCell>
                <mxCell id="0icWfnDGlXqkBCbj08HF-940" value="middleware" style="rounded=1;whiteSpace=wrap;html=1;fillColor=#66B2FF;strokeColor=#36393D;strokeWidth=2;fontColor=#0D0D0D;arcSize=0;fontSize=21;" parent="1" vertex="1">
                    <mxGeometry x="7890" y="-5163" width="163" height="62" as="geometry"/>
                </mxCell>
                <mxCell id="921" style="edgeStyle=none;html=1;strokeColor=#000000;fontSize=50;fontColor=#000000;strokeWidth=13;" edge="1" parent="1" source="922" target="924">
                    <mxGeometry relative="1" as="geometry"/>
                </mxCell>
                <mxCell id="922" value="" style="shape=note;whiteSpace=wrap;html=1;backgroundOutline=1;darkOpacity=0.05;fillColor=#FFFFFF;strokeColor=#B3B3B3;size=0;fontSize=40;fontColor=#000000;perimeterSpacing=1;rounded=1;" vertex="1" parent="1">
                    <mxGeometry x="9149" y="-5671" width="1287" height="860" as="geometry"/>
                </mxCell>
                <mxCell id="923" style="edgeStyle=none;html=1;strokeColor=#000000;strokeWidth=13;fontSize=50;fontColor=#000000;" edge="1" parent="1" source="924" target="928">
                    <mxGeometry relative="1" as="geometry"/>
                </mxCell>
                <mxCell id="924" value="Camada de controle&amp;nbsp;" style="shape=note;whiteSpace=wrap;html=1;backgroundOutline=1;darkOpacity=0.05;fillColor=#60a917;strokeColor=#2D7600;size=0;fontSize=40;fontColor=#ffffff;perimeterSpacing=1;rounded=1;fontStyle=1" vertex="1" parent="1">
                    <mxGeometry x="9801" y="-5648" width="558" height="200" as="geometry"/>
                </mxCell>
                <mxCell id="925" value="&lt;p id=&quot;docs-internal-guid-feefe80f-7fff-1aa5-e58a-e19a02d6f706&quot; style=&quot;line-height: 1.2; margin-top: 0pt; margin-bottom: 0pt; font-size: 50px;&quot; dir=&quot;ltr&quot;&gt;&lt;span style=&quot;font-size: 50px; font-family: Arial, sans-serif; color: rgb(0, 0, 0); background-color: transparent; font-weight: 400; font-style: normal; font-variant: normal; text-decoration: none; vertical-align: baseline;&quot;&gt;Interface chama a camada a controller. A IU conhece&amp;nbsp; a controller e depende dela. A controller chama a lógica de negócio e a logica de negócio chama o acesso a dados&lt;/span&gt;&lt;/p&gt;" style="text;whiteSpace=wrap;html=1;fontSize=50;fontColor=#000000;" vertex="1" parent="1">
                    <mxGeometry x="9206" y="-5434" width="550" height="576" as="geometry"/>
                </mxCell>
                <mxCell id="926" style="edgeStyle=none;html=1;strokeColor=#000000;fontSize=50;fontColor=#000000;" edge="1" parent="1" source="925" target="925">
                    <mxGeometry relative="1" as="geometry"/>
                </mxCell>
                <mxCell id="927" style="edgeStyle=none;html=1;strokeColor=#000000;strokeWidth=13;fontSize=50;fontColor=#000000;" edge="1" parent="1" source="928" target="929">
                    <mxGeometry relative="1" as="geometry"/>
                </mxCell>
                <mxCell id="928" value="Lógica de negócio" style="shape=note;whiteSpace=wrap;html=1;backgroundOutline=1;darkOpacity=0.05;fillColor=#FF887A;strokeColor=#FF887A;size=0;fontSize=40;fontColor=#ffffff;perimeterSpacing=1;rounded=1;fontStyle=1" vertex="1" parent="1">
                    <mxGeometry x="9792" y="-5379" width="558" height="160" as="geometry"/>
                </mxCell>
                <mxCell id="929" value="Acesso aos dados" style="shape=note;whiteSpace=wrap;html=1;backgroundOutline=1;darkOpacity=0.05;fillColor=#FF887A;strokeColor=#2D7600;size=0;fontSize=40;fontColor=#ffffff;perimeterSpacing=1;rounded=1;fontStyle=1" vertex="1" parent="1">
                    <mxGeometry x="9794" y="-5095" width="558" height="152" as="geometry"/>
                </mxCell>
                <mxCell id="934" value="&lt;p id=&quot;docs-internal-guid-feefe80f-7fff-1aa5-e58a-e19a02d6f706&quot; style=&quot;line-height: 1.2; margin-top: 0pt; margin-bottom: 0pt; font-size: 50px;&quot; dir=&quot;ltr&quot;&gt;&lt;span style=&quot;font-size: 50px; font-family: Arial, sans-serif; color: rgb(0, 0, 0); background-color: transparent; font-weight: 400; font-style: normal; font-variant: normal; text-decoration: none; vertical-align: baseline;&quot;&gt;import Controller&lt;/span&gt;&lt;/p&gt;" style="text;whiteSpace=wrap;html=1;fontSize=50;fontColor=#000000;" vertex="1" parent="1">
                    <mxGeometry x="9292" y="-5771" width="550" height="78" as="geometry"/>
                </mxCell>
                <mxCell id="935" style="edgeStyle=none;html=1;strokeColor=#000000;fontSize=50;fontColor=#000000;strokeWidth=13;" edge="1" source="936" target="938" parent="1">
                    <mxGeometry relative="1" as="geometry"/>
                </mxCell>
                <mxCell id="936" value="Interface" style="shape=note;whiteSpace=wrap;html=1;backgroundOutline=1;darkOpacity=0.05;fillColor=#FFFFFF;strokeColor=#B3B3B3;size=0;fontSize=40;fontColor=#000000;perimeterSpacing=1;rounded=1;" vertex="1" parent="1">
                    <mxGeometry x="9299" y="-4588" width="275" height="512" as="geometry"/>
                </mxCell>
                <mxCell id="937" style="edgeStyle=none;html=1;strokeColor=#000000;strokeWidth=13;fontSize=50;fontColor=#000000;" edge="1" source="938" target="942" parent="1">
                    <mxGeometry relative="1" as="geometry"/>
                </mxCell>
                <mxCell id="938" value="Camada de controle&amp;nbsp;" style="shape=note;whiteSpace=wrap;html=1;backgroundOutline=1;darkOpacity=0.05;fillColor=#60a917;strokeColor=#2D7600;size=0;fontSize=40;fontColor=#ffffff;perimeterSpacing=1;rounded=1;fontStyle=1" vertex="1" parent="1">
                    <mxGeometry x="9768" y="-4585" width="558" height="512" as="geometry"/>
                </mxCell>
                <mxCell id="939" value="&lt;meta charset=&quot;utf-8&quot; style=&quot;font-size: 50px;&quot;&gt;&lt;p id=&quot;docs-internal-guid-feefe80f-7fff-1aa5-e58a-e19a02d6f706&quot; style=&quot;line-height: 1.2; margin-top: 0pt; margin-bottom: 0pt; font-size: 50px;&quot; dir=&quot;ltr&quot;&gt;&lt;span style=&quot;font-size: 50px; font-family: Arial, sans-serif; color: rgb(0, 0, 0); background-color: transparent; font-weight: 400; font-style: normal; font-variant: normal; text-decoration: none; vertical-align: baseline;&quot;&gt;Interface chama a camada a controller. A IU conhece&amp;nbsp; a controller e depende dela&lt;/span&gt;&lt;/p&gt;" style="text;whiteSpace=wrap;html=1;fontSize=50;fontColor=#000000;" vertex="1" parent="1">
                    <mxGeometry x="9195" y="-4018" width="550" height="270" as="geometry"/>
                </mxCell>
                <mxCell id="940" style="edgeStyle=none;html=1;strokeColor=#000000;fontSize=50;fontColor=#000000;" edge="1" source="939" target="939" parent="1">
                    <mxGeometry relative="1" as="geometry"/>
                </mxCell>
                <mxCell id="941" style="edgeStyle=none;html=1;strokeColor=#000000;strokeWidth=13;fontSize=50;fontColor=#000000;" edge="1" source="942" target="943" parent="1">
                    <mxGeometry relative="1" as="geometry"/>
                </mxCell>
                <mxCell id="942" value="Lógica de negócio" style="shape=note;whiteSpace=wrap;html=1;backgroundOutline=1;darkOpacity=0.05;fillColor=#FF887A;strokeColor=#FF887A;size=0;fontSize=40;fontColor=#ffffff;perimeterSpacing=1;rounded=1;fontStyle=1" vertex="1" parent="1">
                    <mxGeometry x="10520" y="-4581" width="558" height="512" as="geometry"/>
                </mxCell>
                <mxCell id="943" value="Acesso aos dados" style="shape=note;whiteSpace=wrap;html=1;backgroundOutline=1;darkOpacity=0.05;fillColor=#FF887A;strokeColor=#2D7600;size=0;fontSize=40;fontColor=#ffffff;perimeterSpacing=1;rounded=1;fontStyle=1" vertex="1" parent="1">
                    <mxGeometry x="11217" y="-4581" width="558" height="512" as="geometry"/>
                </mxCell>
                <mxCell id="944" value="&lt;meta charset=&quot;utf-8&quot; style=&quot;font-size: 40px;&quot;&gt;&lt;p id=&quot;docs-internal-guid-1d3bf1cc-7fff-8535-6584-2d5202f5babb&quot; style=&quot;line-height: 1.2; margin-top: 0pt; margin-bottom: 0pt; font-size: 40px;&quot; dir=&quot;ltr&quot;&gt;&lt;span style=&quot;font-size: 40px; font-family: Arial, sans-serif; color: rgb(0, 0, 0); background-color: transparent; font-weight: 400; font-style: normal; font-variant: normal; text-decoration: none; vertical-align: baseline;&quot;&gt;camada de lógica, chama o acesso de dados. A BL conhece o DA&lt;/span&gt;&lt;/p&gt;" style="text;whiteSpace=wrap;html=1;fontSize=40;fontColor=#000000;" vertex="1" parent="1">
                    <mxGeometry x="10543" y="-3994" width="568" height="82" as="geometry"/>
                </mxCell>
                <mxCell id="945" value="&lt;p id=&quot;docs-internal-guid-cd62a2c8-7fff-16cf-3fa9-8741d632da5c&quot; style=&quot;line-height: 1.2; margin-top: 0pt; margin-bottom: 0pt; font-size: 50px;&quot; dir=&quot;ltr&quot;&gt;&lt;span style=&quot;font-size: 50px; font-family: Arial, sans-serif; background-color: transparent; font-variant-numeric: normal; font-variant-east-asian: normal; font-variant-alternates: normal; font-variant-position: normal; vertical-align: baseline;&quot;&gt;A camada de dados não sabe que a outras camadas existem.&lt;/span&gt;&lt;/p&gt;" style="text;whiteSpace=wrap;html=1;fontSize=50;fontColor=#000000;" vertex="1" parent="1">
                    <mxGeometry x="11245" y="-3996" width="568" height="82" as="geometry"/>
                </mxCell>
                <mxCell id="946" value="&lt;meta charset=&quot;utf-8&quot; style=&quot;font-size: 50px;&quot;&gt;&lt;p id=&quot;docs-internal-guid-feefe80f-7fff-1aa5-e58a-e19a02d6f706&quot; style=&quot;line-height: 1.2; margin-top: 0pt; margin-bottom: 0pt; font-size: 50px;&quot; dir=&quot;ltr&quot;&gt;&lt;span style=&quot;font-size: 50px; font-family: Arial, sans-serif; color: rgb(0, 0, 0); background-color: transparent; font-weight: 400; font-style: normal; font-variant: normal; text-decoration: none; vertical-align: baseline;&quot;&gt;Interface chama a camada a controller. A IU conhece&amp;nbsp; a controller e depende dela&lt;/span&gt;&lt;/p&gt;" style="text;whiteSpace=wrap;html=1;fontSize=50;fontColor=#000000;" vertex="1" parent="1">
                    <mxGeometry x="9811" y="-4014" width="550" height="270" as="geometry"/>
                </mxCell>
                <mxCell id="947" value="&lt;p id=&quot;docs-internal-guid-feefe80f-7fff-1aa5-e58a-e19a02d6f706&quot; style=&quot;line-height: 1.2; margin-top: 0pt; margin-bottom: 0pt; font-size: 50px;&quot; dir=&quot;ltr&quot;&gt;&lt;span style=&quot;font-size: 50px; font-family: Arial, sans-serif; color: rgb(0, 0, 0); background-color: transparent; font-weight: 400; font-style: normal; font-variant: normal; text-decoration: none; vertical-align: baseline;&quot;&gt;import Lógica de Negócio&lt;/span&gt;&lt;/p&gt;" style="text;whiteSpace=wrap;html=1;fontSize=50;fontColor=#000000;" vertex="1" parent="1">
                    <mxGeometry x="9818" y="-4676" width="628" height="78" as="geometry"/>
                </mxCell>
                <mxCell id="950" style="edgeStyle=none;html=1;strokeColor=#000000;strokeWidth=4;" edge="1" parent="1" source="948" target="924">
                    <mxGeometry relative="1" as="geometry"/>
                </mxCell>
                <mxCell id="948" value="interface" style="shape=note;whiteSpace=wrap;html=1;backgroundOutline=1;darkOpacity=0.05;fillColor=#FFFFFF;strokeColor=#B3B3B3;size=0;fontSize=40;fontColor=#000000;perimeterSpacing=1;rounded=1;" vertex="1" parent="1">
                    <mxGeometry x="9215" y="-5608" width="384" height="104" as="geometry"/>
                </mxCell>
                <mxCell id="952" value="&lt;p id=&quot;docs-internal-guid-feefe80f-7fff-1aa5-e58a-e19a02d6f706&quot; style=&quot;line-height: 1.2; margin-top: 0pt; margin-bottom: 0pt; font-size: 50px;&quot; dir=&quot;ltr&quot;&gt;&lt;span style=&quot;font-size: 50px; font-family: Arial, sans-serif; color: rgb(0, 0, 0); background-color: transparent; font-weight: 400; font-style: normal; font-variant: normal; text-decoration: none; vertical-align: baseline;&quot;&gt;import o acesso a dados&lt;/span&gt;&lt;/p&gt;" style="text;whiteSpace=wrap;html=1;fontSize=50;fontColor=#000000;" vertex="1" parent="1">
                    <mxGeometry x="10561" y="-4673" width="550" height="78" as="geometry"/>
                </mxCell>
                <mxCell id="953" value="&lt;p id=&quot;docs-internal-guid-feefe80f-7fff-1aa5-e58a-e19a02d6f706&quot; style=&quot;line-height: 1.2; margin-top: 0pt; margin-bottom: 0pt; font-size: 50px;&quot; dir=&quot;ltr&quot;&gt;&lt;span style=&quot;font-size: 50px; font-family: Arial, sans-serif; color: rgb(0, 0, 0); background-color: transparent; font-weight: 400; font-style: normal; font-variant: normal; text-decoration: none; vertical-align: baseline;&quot;&gt;View&lt;/span&gt;&lt;/p&gt;" style="text;whiteSpace=wrap;html=1;fontSize=50;fontColor=#000000;" vertex="1" parent="1">
                    <mxGeometry x="9331" y="-3690" width="206" height="78" as="geometry"/>
                </mxCell>
                <mxCell id="954" value="&lt;p id=&quot;docs-internal-guid-feefe80f-7fff-1aa5-e58a-e19a02d6f706&quot; style=&quot;line-height: 1.2; margin-top: 0pt; margin-bottom: 0pt; font-size: 50px;&quot; dir=&quot;ltr&quot;&gt;&lt;font face=&quot;Arial, sans-serif&quot;&gt;model&lt;/font&gt;&lt;/p&gt;" style="text;whiteSpace=wrap;html=1;fontSize=50;fontColor=#000000;" vertex="1" parent="1">
                    <mxGeometry x="11039" y="-3722" width="206" height="78" as="geometry"/>
                </mxCell>
                <mxCell id="955" value="&lt;p id=&quot;docs-internal-guid-feefe80f-7fff-1aa5-e58a-e19a02d6f706&quot; style=&quot;line-height: 1.2; margin-top: 0pt; margin-bottom: 0pt; font-size: 50px;&quot; dir=&quot;ltr&quot;&gt;&lt;font face=&quot;Arial, sans-serif&quot;&gt;controller&lt;/font&gt;&lt;/p&gt;" style="text;whiteSpace=wrap;html=1;fontSize=50;fontColor=#000000;" vertex="1" parent="1">
                    <mxGeometry x="9951" y="-3701" width="206" height="78" as="geometry"/>
                </mxCell>
            </root>
        </mxGraphModel>
    </diagram>
</mxfile>